<?xml version="1.0" encoding="utf-8"?>
<!-- Generator: Adobe Illustrator 22.1.0, SVG Export Plug-In . SVG Version: 6.00 Build 0)  -->
<svg version="1.1" id="Capa_1" xmlns="http://www.w3.org/2000/svg" xmlns:xlink="http://www.w3.org/1999/xlink" x="0px" y="0px"
	 viewBox="0 0 300 180" style="enable-background:new 0 0 300 180;" xml:space="preserve">
<g>
	<path style="fill:none;" d="M149.4,7C94.3,7,48.3,46,37.4,97.8H40c4.5-20.9,14.8-40,30.3-55.5c21.1-21.1,49.2-32.8,79.1-32.8
		c29.9,0,58,11.6,79.1,32.8c15.5,15.5,25.8,34.6,30.3,55.5h2.5C250.4,46,204.4,7,149.4,7z"/>
	<path style="fill:none;" d="M149.4,12c-29.2,0-56.7,11.4-77.4,32C57,59,46.9,77.6,42.5,97.8h213.7c-4.4-20.2-14.5-38.8-29.5-53.7
		C206.1,23.4,178.6,12,149.4,12z"/>
	<path style="fill:#E6017D;" d="M149.4,7c55.1,0,101,38.9,111.9,90.8h3.8C254.1,44,206.4,3.3,149.4,3.3S44.6,44,33.6,97.8h3.8
		C48.3,46,94.3,7,149.4,7z"/>
	<path style="fill:#5CC1D0;" d="M72,44.1c20.7-20.7,48.1-32,77.4-32c29.2,0,56.7,11.4,77.4,32c15,15,25.1,33.5,29.5,53.7h2.5
		c-4.5-20.9-14.8-40-30.3-55.5c-21.1-21.1-49.2-32.8-79.1-32.8c-29.9,0-58,11.6-79.1,32.8C54.8,57.7,44.4,76.9,40,97.8h2.5
		C46.9,77.6,57,59,72,44.1z"/>
</g>
<g>
	<path style="fill:#E6017D;" d="M278.6,132c0.5-0.5,0.7-1.2,0.6-1.9l-1.1-10.2c-0.1-0.8-0.6-1.5-1.3-1.9c-0.4-0.2-0.8-0.3-1.2-0.3
		c-0.4,0-0.7,0.1-1.1,0.2c-0.1,0-0.1,0.1-0.2,0.1c0-0.2,0-0.3,0-0.5l-0.8-7.4c0.2-0.1,0.4-0.2,0.6-0.3c0.2-0.1,0.4-0.3,0.5-0.5
		c0.4-0.1,0.7-0.2,1-0.4c0.7-0.5,1.1-1.4,1-2.3l-1.1-10.2c-0.1-1.3-1.2-2.2-2.5-2.2h-20.6c-0.5,0-1,0.1-1.4,0.4
		c-0.4-0.3-0.9-0.4-1.4-0.4h-12.7c-0.5,0-1,0.2-1.4,0.4c-0.4-0.3-0.9-0.4-1.4-0.4h-12.7c-0.3,0-0.6,0.1-0.9,0.2
		c-0.2-0.2-0.3-0.4-0.6-0.5c-0.4-0.3-0.9-0.4-1.4-0.4c-0.3,0-0.5,0-0.8,0.1c-0.3,0.1-0.9,0.2-1.9,0.2c-0.3,0-0.7-0.1-1.2-0.1
		c-0.6-0.1-1.3-0.2-2.2-0.2c-2.5,0-4.9,0.5-7,1.4c0.2-0.2,0.4-0.5,0.5-0.8c0-0.1,0.1-0.2,0.1-0.3c0.3-0.2,0.5-0.5,0.6-0.9
		c0.4-0.9,0.2-2-0.5-2.7c-0.6-0.6-0.8-1.2-0.9-1.4c-0.2-3.6-0.3-7.1-0.5-10.7c0-0.8-0.2-1.5-0.2-2.3c0-0.9,0.1-1.5,0.6-2.3
		c3.8-7.4,7.7-14.7,11.3-22.1c0.7-1.5,1.4-2.9,2.1-4.4c0.2-0.5,1.3-2.3,1.1-2.9c-0.4-0.9-1.3-1.5-2.3-1.5c0,0-18.7,0-18.7,0
		c-0.6,0-1.2,0.2-1.7,0.6c-0.4,0.4-0.6,0.8-0.7,1.3c-0.3,1.3-0.8,2.5-1.2,3.7c-0.2,0.6-0.5,1.2-0.7,1.8c-0.2,0.5-0.4,1.1-0.6,1.6
		c-0.5-0.5-0.8-1.2-1.2-1.8c-0.4-0.6-0.8-1.1-1.1-1.7c-0.2-0.3-0.4-0.7-0.6-1c-0.1-0.1-0.2-0.3-0.2-0.5c0-0.2,0.1-0.3,0.1-0.4
		c0.4-0.8,0.4-1.7-0.1-2.5c-0.4-0.8-1.3-1.2-2.1-1.2h-19.1c-1.1,0-2,0.7-2.4,1.7c-0.1,0.4-0.2,0.9-0.1,1.3c-0.1,0.1-0.1,0.3-0.2,0.4
		c-0.1,0.4-0.2,0.7-0.1,1.1c-4.6-3.5-10.3-5.6-16.5-5.6c-3.3,0-6.5,0.6-9.6,1.8c-3,1.1-5.8,2.8-8.2,4.9c-1,0.9-2,1.9-2.9,2.9
		c-0.4,0.5-0.9,1.1-1.3,1.6c-0.2,0.3-0.4,0.6-0.6,0.9c-0.2,0.2-0.3,0.6-0.5,0.7c0.1-0.1,0-0.5,0-0.6c0-0.3,0-0.6-0.1-1
		c-0.1-0.7-0.2-1.3-0.3-2c-0.1-1.1-0.3-2.1-0.4-3.2c-0.1-0.6-0.1-1.2-0.2-1.8c-0.1-0.5,0-1.1-0.2-1.6c-0.4-0.9-1.3-1.5-2.3-1.5H106
		c-0.8,0-1.5,0.4-2,1c-0.5-0.6-1.2-1-2-1H84.1c-1,0-1.9,0.6-2.3,1.5c-0.4,0.9-0.2,1.9,0.4,2.7c0.1,0.1,0.1,0.1,0.1,0.2
		c0,0.5,0.2,0.9,0.4,1.3c0.1,0.3,0.1,0.7,0.1,1.1l-2.2,38.2c-0.1,1.1-0.5,2.1-1.1,2.7c-0.5,0.5-0.8,1.1-0.8,1.8c0,0.9,0.5,1.5,1,2.1
		c1.1,1.7,2.2,3.4,3.4,5c0,0.1-0.1,0.2-0.1,0.2c-0.9,2-1.7,4-2.6,6c-0.3,0.7-0.5,1.4-0.9,2.1c-1.1-1.6-2.4-3.1-3.7-4.6
		c-1.6-2-3-4.3-5-5.9c-1.6-1.3-3.6-2.2-5.6-2.8c-1.7-0.5-3.5-0.7-5.3-0.7c-2.6,0-4.5,0.4-6.1,0.7c-1,0.2-1.8,0.4-2.5,0.4
		c-0.6,0-1.1-0.2-1.4-0.4c-0.5-0.4-1.1-0.6-1.7-0.6c-0.3,0-0.6,0.1-0.9,0.2c-0.3,0.1-0.6,0.3-0.9,0.6H23c-1.3,0-2.3,1-2.5,2.2
		c0,0-1.1,9.9-1.1,9.9c-0.1,0.6,0.1,1.1,0.4,1.7c0.5,0.8,1.7,1.3,2.4,1.8c0.6,0.4,1.2,0.8,1.8,1.2c0.4,0.3,1.3,0.6,1.3,1.2
		c0,0.4-0.1,0.7-0.1,1.1c-0.1,1.2-0.2,2.4-0.4,3.6c-0.3,2.8-0.6,5.5-0.9,8.3c-0.1,0.6-0.1,1.2-0.2,1.9c-0.1,0.6-0.3,1.2-0.7,1.5
		c-0.8,0.7-1,1.8-0.6,2.7c0.3,0.9,1,1.2,1.8,1.6c1,0.5,1.9,0.9,2.9,1.4c1.9,0.9,3.9,1.8,5.8,2.8c3.9,1.8,7.8,3.7,11.7,5.5
		c2.6,1.2,5.2,2.5,7.8,3.7c0.7,0.4,1.6,0.8,2.4,0.9c0.5,0.1,1.1,0,1.6,0c1.2,0,2.3,0,3.5,0c1.6,0,3.3,0,4.9,0c0.7,0,1.4-0.4,1.7-1.1
		c0-0.1,0-0.2,0.1-0.2c0.3,0.3,0.7,0.6,1.2,0.6c0.3,0.4,0.9,0.7,1.5,0.7h10.3c0.7,0,1.3-0.4,1.6-1c0.2,0.1,0.3,0.2,0.5,0.2
		c0.3,0.5,0.9,0.8,1.5,0.8h6.7h3.6h6.8c1,0,1.8-0.8,1.9-1.8l0-0.2c0-0.4-0.1-0.8-0.3-1.2c0-0.2,0-0.3,0.1-0.5c0.5,0,1.2-0.1,1.8,0
		c0.9,0.2,1.8,1.9,2.4,2.6c0.5,0.6,1,1.1,1.8,1.1h8.4c0.3,0.2,0.6,0.3,1,0.3c0.3,0,0.6-0.1,0.8-0.2c0.1,0,0.2-0.1,0.2-0.1
		c0.2,0,0.5-0.1,0.7-0.2c0.1,0,0.2,0,0.3,0c0.4,0,1,0.1,1.6,0.3c0.9,0.2,1.9,0.5,3.1,0.5c3.2,0,5.9-0.9,7.9-2.5c0,0,0,0,0,0
		c0,0,0.1,0.1,0.1,0.1c0,0.2,0,0.4,0.1,0.6c0.3,0.7,1,1.2,1.7,1.2c0,0,9.7,0,9.7,0c0.8,0,1.5-0.5,1.7-1.2c0.1-0.3,0.1-0.7,0.1-1
		c0-1.3,0.3-2.9,0-4.2c0,0,0,0,0,0l3.2,5.6c0.3,0.6,1,0.9,1.6,0.9c0,0,8.5,0,8.5,0c0.6,0,1.1-0.3,1.4-0.7c0.3-0.4,0.4-0.8,0.6-1.3
		c0.2-0.6,0.3-1.3,0.6-1.8c0.8,0.5,1.4,1.2,2.2,1.8c0.8,0.6,1.7,1,2.6,1.4c1.8,0.8,3.8,1.2,5.8,1.2c4.7,0,8.8-2.1,11.4-5.6
		c0.2-0.2,0.4-0.5,0.6-0.8c0.1-0.1,0.2-0.2,0.3-0.3c2.8,4.1,7.5,6.7,12.6,6.7c0.7,0,1.2-0.1,1.7-0.2c0.3-0.1,0.6-0.1,0.9-0.1
		c0.3,0,0.5,0,0.7,0c0.1,0,0.1,0,0.2,0c0.2,0,0.5,0.1,0.7,0.1c0.2,0.1,0.4,0.1,0.6,0.1c0.4,0,0.8-0.1,1.1-0.4
		c0.1-0.1,0.2-0.2,0.3-0.3c0.2,0.1,0.4,0.1,0.7,0.1h9.8c0.4,0,0.8-0.1,1.1-0.3c0.3,0.2,0.7,0.3,1.1,0.3h9.8c0.4,0,0.8-0.1,1.1-0.3
		c0.3,0.2,0.7,0.3,1.1,0.3h15.9C247.4,147.5,278.2,132.5,278.6,132z"/>
	<g>
		<path style="fill:#5CC1D0;" d="M100,91.9H81.3c1.2-1.2,1.7-2.9,1.8-4.3l2.2-38.2c0.1-1.4-0.2-3.2-1.3-4.3H102
			c-1.2,1.2-1.6,2.9-1.7,4.3l-0.6,13.5h7.1l0.5-13.5c0.1-1.4-0.3-3.2-1.4-4.3h17.9c-1.2,1.2-1.6,2.9-1.6,4.3l-0.9,38.2
			c0,1.4,0.3,3.2,1.5,4.3h-18.7c1.2-1.2,1.7-2.9,1.7-4.3l0.5-13.4h-7.2l-0.6,13.4C98.6,89,98.9,90.7,100,91.9z M125.6,68.4
			c0.3-13.2,11-24.5,24.9-24.5c13.9,0,24.7,11.3,25,24.5c0.3,13.2-10.4,24.5-24.9,24.5C136.1,92.9,125.3,81.7,125.6,68.4z
			 M146.3,68.8c0,8.3,4.1,15.7,4.1,15.7s5-5.8,5-15.7s-5-18.2-5-18.2S146.3,60.5,146.3,68.8z M172,47.6l14.9,22.6l0.6,18.7
			c0,1-0.6,2.1-1.4,3h18.4c-0.8-0.9-1.5-2-1.5-3l-0.9-18.7l13.7-23c0.6-0.8,1-1.6,1.7-2.2h-18.7c0.3,0.5,0.5,1.1,0.5,1.7
			c0,0.9-0.9,2.8-2.1,4.7l-3,5l-3.4-5c-1.3-2-2.5-3.8-2.5-4.7c0-0.7,0.2-1.3,0.4-1.7h-19.1C170.6,45.7,171.3,46.6,172,47.6z
			 M46.9,96.7H23l-1.1,9.9c1-0.5,2.5-0.7,3.7-0.7h2.9l-2.2,21.3c-0.1,1-0.5,2.3-1.5,3.1h13.5c-0.8-0.9-0.9-2.1-0.8-3.1l2-21.3h2.9
			c1.2,0,2.6,0.2,3.5,0.7L46.9,96.7z M130.2,120.1c-0.1,7.4-5.8,11-12.8,11c-2.3,0-4.5-1-6.3-1c-0.6,0-1,0.1-1.5,0.2
			c0,0,0,0,0.1,0.1h-0.3c-0.3,0.1-0.7,0.2-1,0.4l0-0.4H95.8c0.3-0.5,0.4-1.2,0.4-1.8c0-1-0.3-2-0.6-3h-9.4c-0.6,0.8-0.9,2.1-1,3.1
			c0,0.5,0.1,1.2,0.4,1.5l0,0.2h-9.1h-4.8h-8.9c0.9-0.9,1.3-2.1,1.4-3.1c0.2-2.7-2.8-6-6.6-6.7l-0.5,6.7c-0.1,1,0.1,2.3,0.9,3.1
			H44.2c0.9-0.9,1.4-2.1,1.4-3.1l2.8-31.3c0.7,0.7,1.8,1.1,3.1,1.1c2.1,0,4.6-1.1,8.6-1.1c7.6,0,13.5,4.1,12.9,11.9
			c-0.2,2.6-1.6,5.4-3.7,7.4c3,1.5,5.3,4.6,6.1,8.5l10-23.3c0.2-0.5,0.5-1.5,0.6-2.1c0-0.8-0.4-1.1-0.9-1.5h12.7l10,30.7
			c0.2,0.5,0.4,0.9,0.6,1.3l0.4-11.7c1.9,2.3,4.7,5.2,8,5.2c1.2,0,2.6-0.8,2.6-2.2c0.1-2.2-2.7-3.4-5.4-5.2
			c-2.7-1.8-5.4-4.4-5.2-9.1c0.2-6.9,5-9.8,11.3-9.8c1.8,0,3.9,1,4.6,1c0.7,0,1.4-0.1,1.9-0.6l-0.2,11c-0.7-1.4-2.8-3.7-4.5-3.7
			c-1.7,0-2.5,0.6-2.5,1.8c0,1.9,2.7,2.9,5.4,4.7C127.6,111.9,130.3,114.6,130.2,120.1z M58.8,105.5l-0.5,6.2c1.8,0,4.3-0.6,4.5-3.1
			C63,106.2,60.7,105.5,58.8,105.5z M93.6,117.7l-1.7-10.3h-0.2L89,117.7H93.6z M162.2,99.8c0-1,0.3-2.3,1.1-3.1h-12.6
			c0.8,0.9,1.1,2.1,1.1,3.1l0,13.6l-0.1,0.1L142,96.7h-11c0.8,0.9,1.1,2.1,1.1,3.1l-0.4,27.4c0,1-0.3,2.3-1.2,3.1h12.9
			c-0.8-0.9-1.1-2.1-1.1-3.1l0.1-14.1l0.1-0.1l9.9,17.3h11.3c-0.8-0.9-1.2-2.1-1.2-3.1L162.2,99.8z M220.1,117.5l0.8,13.6
			c-0.4-0.1-0.9-0.2-1.4-0.3c-0.5-0.1-1-0.1-1.4-0.1c-0.6,0-1.1,0.1-1.6,0.2c-0.5,0.1-1.1,0.2-1.8,0.2c-8.1,0-14.8-5.4-17.1-12.6
			c-1.8,7.2-8.1,12.6-16.1,12.6c-9.9,0-17.5-8.1-17.6-17.6c-0.1-9.5,7.1-17.6,16.6-17.6c7.8,0,14.3,5.4,16.7,12.6
			c1.7-7.2,7.8-12.6,15.6-12.6c0.7,0,1.3,0.1,1.8,0.2c0.5,0.1,1,0.2,1.6,0.2c0.9,0,1.9-0.1,2.7-0.4l0.8,13.3
			c-1.7-1.7-3.9-2.7-6.1-2.6c-3.9,0-6.4,3.3-6.3,7c0.2,3.7,3,6.8,7,6.8C216.5,120.4,218.6,119.3,220.1,117.5z M187.2,113.5
			c-0.1-4.1-3.1-6.9-6.6-6.9c-3.5,0-6.3,2.8-6.2,6.9c0.1,4.1,3.1,6.9,6.6,6.9C184.5,120.4,187.4,117.6,187.2,113.5z M249,99.8
			c-0.1-1,0.1-2.3,0.8-3.1h-12.7c0.9,0.9,1.2,2.1,1.3,3.1l0.7,9.7h-5l-0.7-9.7c-0.1-1,0.1-2.3,0.9-3.1h-12.7
			c0.8,0.9,1.2,2.1,1.3,3.1l1.7,27.4c0.1,1-0.1,2.3-0.9,3.1h13.1c-0.9-0.9-1.3-2.1-1.3-3.1l-0.7-9.6h5l0.7,9.6
			c0.1,1-0.1,2.3-0.9,3.1h13.1c-0.9-0.9-1.3-2.1-1.4-3.1L249,99.8z M276.8,130.3l-1.1-10.2c-1.4,0.7-3.3,0.9-5.1,0.9h-4.5l-0.4-3.9
			h2.4c1.2,0,2.5,0.1,3.8,0.7l-0.9-9c-1.2,0.5-2.4,0.7-3.6,0.7H265l-0.3-3.5h4.5c1.7,0,3.6,0.2,5.2,0.9l-1.1-10.2h-20.6
			c0.9,0.9,1.3,2.1,1.4,3.1l2.4,27.4c0.1,1-0.1,2.3-0.8,3.1H276.8z"/>
	</g>
</g>
<g>
	<path style="fill:#E6017D;" d="M13,169.8c0,1.8,0.3,2.7,1.2,3.6H6.7c1-0.7,1.2-1.3,1.2-3.6V159c0-1.7-0.1-2-0.3-2.6
		c-0.2-0.4-0.4-0.7-0.9-1h10c0.5,0,0.6,0,0.9-0.2v4c-0.7-0.9-1.3-1.1-2.9-1.1H13v4.8h2.4c0.4,0,0.5,0,0.8-0.2v3.6
		c-0.4-0.8-0.9-1-2.1-1H13V169.8z"/>
	<path style="fill:#E6017D;" d="M17.9,173.4c1-0.7,1.2-1.2,1.2-3.6V159c0-1.7-0.1-2-0.3-2.6c-0.2-0.5-0.4-0.7-0.9-1h7.4
		c-0.5,0.4-0.8,0.7-1,1.2c-0.2,0.4-0.2,0.9-0.2,2.3v10.8c0,2.3,0.2,2.8,1.2,3.6H17.9z"/>
	<path style="fill:#E6017D;" d="M32.5,170.3c0.9,0.3,1.6,0.4,2.9,0.4c1.6,0,2.5-0.3,3.8-1.2l-1.1,3.8H26.2c1-0.8,1.2-1.3,1.2-3.6
		V159c0-1.7-0.1-2-0.3-2.6c-0.2-0.5-0.4-0.7-0.9-1h7.4c-0.5,0.4-0.8,0.7-1,1.2c-0.2,0.4-0.2,0.9-0.2,2.3V170.3z"/>
	<path style="fill:#E6017D;" d="M53.5,155.4H60c-0.8,0.8-1,1.2-1,1.9c0,0.4,0,0.4,0.2,2l1.2,10.2c0.2,2,0.6,3,1.5,3.9h-7.2
		c0.7-0.7,0.9-1.3,0.9-2c0-0.3,0-0.7-0.1-1.2l-1-8.4l-3.6,11.9c-2.7-1.3-3.3-1.9-4.2-4.3l-2.9-7.6l-0.8,8c-0.1,1.1-0.1,1.1-0.1,1.5
		c0,0.9,0.3,1.5,1.2,2.1h-5.5c0.9-0.9,1.2-1.5,1.4-3.6l1.3-10.5c0.1-0.7,0.1-1.1,0.1-1.4c0-1-0.3-1.7-1.1-2.5H46l4.2,10.5
		L53.5,155.4z"/>
	<path style="fill:#E6017D;" d="M68.3,170.4c0.8,0.3,1.6,0.4,3,0.4c1.9,0,3-0.4,4-1.5l-1,4.1H62c1-0.8,1.2-1.3,1.2-3.6V159
		c0-1.7-0.1-2-0.3-2.6c-0.2-0.4-0.4-0.7-0.9-1h10c0.5,0,0.7,0,0.9-0.2v4c-0.7-0.9-1.3-1.1-2.9-1.1h-1.8v4.4h2.9c0.3,0,0.6,0,0.8-0.2
		v3.8c-0.5-0.8-0.9-1-2.1-1h-1.6V170.4z"/>
	<path style="fill:#E6017D;" d="M85.9,173c0,2.3-0.6,3.3-2.5,4.5c-1.7,1-2.9,1.4-4.8,1.7c0.7-0.9,1.1-1.7,1.5-2.6
		c0.6-1.4,0.7-2.1,0.7-5V159c0-1.7-0.1-2-0.3-2.6c-0.2-0.4-0.4-0.7-0.9-1h7.4c-0.5,0.4-0.8,0.7-1,1.2c-0.2,0.4-0.2,0.9-0.2,2.3V173z
		"/>
	<path style="fill:#E6017D;" d="M98.9,171.7c-1.8,1.6-2.9,2-4.8,2c-1.5,0-2.8-0.5-3.8-1.4c-1-1-1.4-2.1-1.4-4V159
		c0-1.7-0.1-2-0.3-2.6c-0.2-0.5-0.4-0.7-0.9-1h7.4c-0.5,0.4-0.7,0.7-0.9,1.2c-0.2,0.4-0.2,0.9-0.2,2.3v8.1c0,1.6,0.2,2.3,0.6,2.8
		c0.4,0.4,1,0.7,1.7,0.7c0.9,0,1.7-0.4,2-1.2c0.2-0.5,0.3-1.4,0.3-2.7V159c0-1.7,0-2-0.3-2.6c-0.2-0.5-0.4-0.7-0.8-1h7.4
		c-0.5,0.4-0.8,0.7-1,1.2c-0.2,0.5-0.2,0.7-0.2,2.3v10.8c0,1.8,0,2,0.3,2.6c0.2,0.4,0.4,0.7,0.9,1h-6.1V171.7z"/>
	<path style="fill:#E6017D;" d="M105.8,173.4c0.9-1,1.2-1.9,1.2-3.6v-10.1c0-2-0.3-2.8-1.6-4.2h5.7l8.6,11.2v-7.6
		c0-1.9-0.3-2.6-1.2-3.6h5.3c-0.9,1-1.2,1.9-1.2,3.6v14.9c-3-0.6-5.3-2.1-7.1-4.6l-5.6-7.3v7.7c0,1.8,0.3,2.6,1.2,3.6H105.8z"/>
	<path style="fill:#E6017D;" d="M133.3,169.8c0,1.8,0.3,2.7,1.2,3.6H127c1-0.8,1.2-1.2,1.2-3.6v-11.3c-0.4-0.1-0.8-0.1-1.3-0.1
		c-1.4,0-2,0.2-3.4,1.2l1.1-4.2l0.4,0l2.9,0.1h5.8c3.6,0,3.7,0,4.6-0.2l-0.9,4.3c-0.5-0.9-1.1-1.2-2.5-1.2c-0.6,0-1.1,0.1-1.6,0.2
		V169.8z"/>
	<path style="fill:#E6017D;" d="M158.1,164.4c0,5.5-4.2,9.4-10.2,9.4c-5.9,0-10-3.8-10-9.3c0-5.6,4.3-9.4,10.4-9.4
		C154.2,155.1,158.1,158.8,158.1,164.4z M143.2,163.9c0,2.3,0.7,4.6,1.8,5.7c0.8,0.9,2,1.3,3.2,1.3c1.2,0,2.3-0.5,3.1-1.4
		c1-1,1.4-2.4,1.4-4.3c0-2.1-0.6-4.2-1.5-5.6c-0.9-1.2-2.1-1.9-3.5-1.9C145,157.8,143.2,160.3,143.2,163.9z"/>
	<path style="fill:#E6017D;" d="M173.7,155.4l5.4,14.4c0.7,1.9,1,2.4,2.3,3.6h-8c0.9-0.7,1.1-1.1,1.1-1.7c0-0.4-0.1-0.7-0.4-1.6
		l-0.7-2.2h-5.5l-0.8,2.2c-0.3,0.8-0.4,1.3-0.4,1.7c0,0.5,0.2,0.8,1,1.6h-5.7c1.2-1.2,1.4-1.7,2.1-3.8l3.7-10.7
		c0.5-1.4,0.5-1.5,0.5-1.9c0-0.6-0.3-1-1.1-1.6H173.7z M170.4,160l-1.8,5.4h3.8L170.4,160z"/>
	<path style="fill:#E6017D;" d="M186.9,170.3c0.9,0.3,1.6,0.4,2.9,0.4c1.6,0,2.5-0.3,3.8-1.2l-1.1,3.8h-11.8c1-0.8,1.2-1.3,1.2-3.6
		V159c0-1.7-0.1-2-0.3-2.6c-0.2-0.5-0.4-0.7-0.9-1h7.4c-0.5,0.4-0.8,0.7-1,1.2c-0.2,0.4-0.2,0.9-0.2,2.3V170.3z"/>
	<path style="fill:#E6017D;" d="M204.2,169.8c0,1.8,0.3,2.7,1.2,3.6h-7.5c1-0.7,1.2-1.2,1.2-3.6V159c0-1.7-0.1-2-0.3-2.6
		c-0.2-0.5-0.4-0.7-0.9-1h7c3.3,0,4.5,0.2,5.8,1.1c1.2,0.9,1.9,2.3,1.9,3.9c0,3.2-2.6,5.4-6.5,5.4c-0.5,0-0.8,0-1.5-0.1
		c1.9-0.9,2.7-2.1,2.7-4.1c0-1.3-0.5-2.4-1.2-2.9c-0.5-0.3-0.9-0.4-1.8-0.5V169.8z"/>
	<path style="fill:#E6017D;" d="M224.2,171.7c-1.8,1.6-2.9,2-4.8,2c-1.5,0-2.8-0.5-3.8-1.4c-1-1-1.4-2.1-1.4-4V159
		c0-1.7-0.1-2-0.3-2.6c-0.2-0.5-0.4-0.7-0.9-1h7.4c-0.5,0.4-0.7,0.7-0.9,1.2c-0.2,0.4-0.2,0.9-0.2,2.3v8.1c0,1.6,0.2,2.3,0.6,2.8
		c0.4,0.4,1,0.7,1.7,0.7c0.9,0,1.7-0.4,2-1.2c0.2-0.5,0.3-1.4,0.3-2.7V159c0-1.7,0-2-0.3-2.6c-0.2-0.5-0.4-0.7-0.8-1h7.4
		c-0.5,0.4-0.8,0.7-1,1.2c-0.2,0.5-0.2,0.7-0.2,2.3v10.8c0,1.8,0,2,0.3,2.6c0.2,0.4,0.4,0.7,0.9,1h-6.1V171.7z"/>
	<path style="fill:#E6017D;" d="M237.3,170.4c0.8,0.3,1.6,0.4,3,0.4c1.9,0,3-0.4,4-1.5l-1,4.1h-12.3c1-0.8,1.2-1.3,1.2-3.6V159
		c0-1.7-0.1-2-0.3-2.6c-0.2-0.4-0.4-0.7-0.9-1h10c0.5,0,0.7,0,0.9-0.2v4c-0.7-0.9-1.3-1.1-2.9-1.1h-1.8v4.4h2.9c0.3,0,0.6,0,0.8-0.2
		v3.8c-0.5-0.8-0.9-1-2.1-1h-1.6V170.4z"/>
	<path style="fill:#E6017D;" d="M252.8,155.4c3.1,0,5.2,1.7,5.2,4.3c0,1.7-0.9,2.8-2.9,3.5c2.6,0.5,4,2.2,4,4.7
		c0,1.6-0.7,3.1-1.8,4.1c-1.2,1-2.5,1.4-4.6,1.4h-8.5c1-0.7,1.2-1.2,1.2-3.6V159c0-1.7-0.1-2-0.3-2.6c-0.2-0.4-0.4-0.7-0.9-1H252.8z
		 M250.4,162.4c0.2,0.1,0.3,0.1,0.6,0.1c1.3,0,2.3-1,2.3-2.4c0-1.2-0.8-2.1-1.9-2.1c-0.3,0-0.5,0-0.9,0.2V162.4z M250.4,170.5
		c0.4,0.2,0.8,0.3,1.3,0.3c1.6,0,2.5-1.2,2.5-3.2c0-1.9-1-2.9-3.1-2.9c-0.1,0-0.4,0-0.7,0V170.5z"/>
	<path style="fill:#E6017D;" d="M266.3,170.3c0.9,0.3,1.6,0.4,2.9,0.4c1.6,0,2.5-0.3,3.8-1.2l-1.1,3.8H260c1-0.8,1.2-1.3,1.2-3.6
		V159c0-1.7-0.1-2-0.3-2.6c-0.2-0.5-0.4-0.7-0.9-1h7.4c-0.5,0.4-0.8,0.7-1,1.2c-0.2,0.4-0.2,0.9-0.2,2.3V170.3z"/>
	<path style="fill:#E6017D;" d="M293,164.4c0,5.5-4.2,9.4-10.2,9.4c-5.9,0-10-3.8-10-9.3c0-5.6,4.3-9.4,10.4-9.4
		C289.1,155.1,293,158.8,293,164.4z M278.1,163.9c0,2.3,0.7,4.6,1.8,5.7c0.8,0.9,2,1.3,3.2,1.3c1.2,0,2.3-0.5,3.1-1.4
		c1-1,1.4-2.4,1.4-4.3c0-2.1-0.6-4.2-1.5-5.6c-0.9-1.2-2.1-1.9-3.5-1.9C279.9,157.8,278.1,160.3,278.1,163.9z"/>
</g>
</svg>
