<svg version="1.1" id="Capa_1"
   xmlns="http://www.w3.org/2000/svg"
   xmlns:xlink="http://www.w3.org/1999/xlink" x="0px" y="0px" viewBox="0 0 50 50" style="enable-background:new 0 0 50 50;" xml:space="preserve">
   <g>
      <circle style="fill:#A479E2;" cx="25" cy="25" r="24.5"/>
      <g>
         <path style="fill:#F2F2F2;" d="M29.1,49.2c-1.3,0.2-2.7,0.3-4.1,0.3c-1.3,0-2.5-0.1-3.8-0.3c-0.8-3.5-2.4-12.9-1.6-15.7
			c0.7-2.5,4.7-2.9,5.5-2.9s4.9,0.3,5.5,2.9C31.5,36.3,29.9,45.6,29.1,49.2z"/>
         <circle style="fill:#F2F2F2;" cx="25" cy="23.3" r="5.3"/>
         <path style="fill:#F2F2F2;" d="M25,10.5c-8.1,0-14.7,6.6-14.7,14.7c0,5.1,2.7,9.7,6.7,12.3c-0.1-1.4-0.1-2.7,0.1-3.7
			c-2.3-2.1-3.7-5.2-3.7-8.5c0-6.4,5.2-11.7,11.7-11.7c6.4,0,11.7,5.2,11.7,11.7c0,3.2-1.3,6.2-3.4,8.3c0.2,1,0.2,2.3,0.1,3.8
			c3.8-2.6,6.3-7.1,6.3-12.1C39.7,17.1,33.1,10.5,25,10.5z"/>
         <path style="fill:#F2F2F2;" d="M25,3C12.8,3,2.8,12.9,2.8,25.2c0,9.9,6.5,18.2,15.4,21.1c-0.2-1-0.4-2.2-0.6-3.4
			C10.7,40,5.8,33.1,5.8,25.2C5.8,14.6,14.4,6,25,6c10.6,0,19.2,8.6,19.2,19.2c0,7.8-4.7,14.6-11.5,17.6c-0.2,1.2-0.4,2.4-0.6,3.4
			c8.7-3,15-11.3,15-21C47.2,12.9,37.2,3,25,3z"/>
      </g>
   </g>
</svg>
