<svg version="1.1" id="Layer_1"
   xmlns="http://www.w3.org/2000/svg"
   xmlns:xlink="http://www.w3.org/1999/xlink" x="0px" y="0px" viewBox="250 250 50 50" style="enable-background:new 250 250 50 50;" xml:space="preserve">
   <g>
      <circle style="fill:#FFFFFF;" cx="275" cy="275" r="24.5"/>
      <g>
         <g>
            <path style="fill:#0066D9;" d="M257.508,271.12c-1.385,0-2.508,1.123-2.508,2.508c0,0.099,0.007,0.196,0.018,0.292v2.141
				c-0.011,0.096-0.018,0.193-0.018,0.292c0,1.385,1.123,2.508,2.508,2.508c1.385,0,2.508-1.123,2.508-2.508v-2.726
				C260.016,272.243,258.893,271.12,257.508,271.12z"/>
            <path style="fill:#4285F4;" d="M292.492,271.12c-1.385,0-2.508,1.123-2.508,2.508c0,0.098,0.007,0.194,0.018,0.29v2.147
				c-0.011,0.095-0.018,0.192-0.018,0.29c0,1.385,1.123,2.508,2.508,2.508c1.385,0,2.508-1.123,2.508-2.508v-2.726
				C295,272.243,293.877,271.12,292.492,271.12z"/>
            <g>
               <path style="fill:#EA4335;" d="M268.648,281.806c0-1.385-1.123-2.508-2.508-2.508c-1.385,0-2.508,1.123-2.508,2.508
					c0,0.003,0,0.006,0,0.009v2.708c0,0.003,0,0.006,0,0.009c0,1.385,1.123,2.508,2.508,2.508c1.385,0,2.508-1.123,2.508-2.508
					c0-0.098-0.007-0.194-0.018-0.29v-2.147C268.641,282,268.648,281.904,268.648,281.806z"/>
               <path style="fill:#EA4335;" d="M268.63,265.74c0.011-0.095,0.018-0.191,0.018-0.29c0-1.385-1.123-2.508-2.508-2.508
					c-1.385,0-2.508,1.123-2.508,2.508c0,0.003,0,0.006,0,0.009v8.85c0,0.003,0,0.006,0,0.009s0,0.006,0,0.009v0.046h0.002
					c0.03,1.36,1.138,2.453,2.505,2.453c1.385,0,2.508-1.123,2.508-2.508c0-0.098-0.007-0.194-0.018-0.29V265.74z"/>
            </g>
            <g>
               <path style="fill:#34A853;" d="M283.86,262.942c-1.385,0-2.508,1.123-2.508,2.508c0,0.098,0.007,0.194,0.018,0.29v2.147
					c-0.011,0.095-0.018,0.192-0.018,0.29c0,1.385,1.123,2.508,2.508,2.508c1.385,0,2.508-1.123,2.508-2.508v-2.726
					C286.368,264.065,285.245,262.942,283.86,262.942z"/>
               <path style="fill:#34A853;" d="M283.86,273.173c-1.385,0-2.508,1.123-2.508,2.508c0,0.098,0.007,0.194,0.018,0.29v8.271
					c-0.011,0.095-0.018,0.192-0.018,0.29c0,1.385,1.123,2.508,2.508,2.508c1.379,0,2.497-1.113,2.507-2.489h0.001v-8.869
					C286.368,274.296,285.245,273.173,283.86,273.173z"/>
            </g>
            <g>
               <path style="fill:#FAB908;" d="M277.499,257.803c0.011-0.097,0.019-0.195,0.019-0.295c0-1.385-1.123-2.508-2.508-2.508
					c-1.385,0-2.508,1.123-2.508,2.508v2.726c0,1.385,1.123,2.508,2.508,2.508c1.385,0,2.508-1.123,2.508-2.508
					c0-0.1-0.007-0.198-0.019-0.295V257.803z"/>
               <path style="fill:#FAB908;" d="M277.517,289.766c0-1.385-1.123-2.508-2.508-2.508c-1.385,0-2.508,1.123-2.508,2.508v2.726
					c0,1.385,1.123,2.508,2.508,2.508c1.385,0,2.508-1.123,2.508-2.508c0-0.1-0.007-0.198-0.019-0.295v-2.136
					C277.51,289.964,277.517,289.866,277.517,289.766z"/>
               <path style="fill:#FAB908;" d="M277.517,267.722c0-1.385-1.123-2.508-2.508-2.508c-1.385,0-2.508,1.123-2.508,2.508v14.539
					c0,1.385,1.123,2.508,2.508,2.508c1.385,0,2.508-1.123,2.508-2.508c0-0.1-0.007-0.198-0.019-0.295v-13.949
					C277.51,267.92,277.517,267.822,277.517,267.722z"/>
            </g>
         </g>
      </g>
   </g>
</svg>
