<svg version="1.1" id="Layer_1"
   xmlns="http://www.w3.org/2000/svg"
   xmlns:xlink="http://www.w3.org/1999/xlink" x="0px" y="0px" viewBox="250 250 50 50" style="enable-background:new 250 250 50 50;" xml:space="preserve">
   <circle style="fill:#F0565E;" cx="275" cy="275" r="24.5"/>
   <path style="fill:#FBFBFB;" d="M-10.526,184.064c-2.045-1.453-2.164-3.023-1.03-4.466c1.116-1.42,2.487-1.3,3.661,0.338
	C-8.158,181.569-9.185,182.731-10.526,184.064z"/>
   <g>
      <path style="fill:#F3F5D9;" d="M268.728,277.197c-1.176-0.16-2.302-0.108-3.413,0.237c-1.475,0.532-2.923,1.121-4.471,1.463
		c-1.739,0.384-3.479,0.752-5.229,1.082c-0.949,0.179-1.351,0.676-1.318,1.464c0.035,0.838,0.567,1.286,1.602,1.353
		c1.251,0.081,2.371-0.377,3.469-0.881c1.333-0.613,2.618-1.339,3.977-1.885c0.958-0.385,1.925-0.904,3.341-0.822
		c-0.764,0.961-1.284,1.667-2.43,1.547c-0.45-0.047-0.939,0.084-1.382,0.222c-0.787,0.245-1.233,0.878-1.239,1.65
		c-0.006,0.806,0.72,1.088,1.372,1.324c0.462,0.167,0.923,0.049,1.392-0.048c3.225-0.663,5.715-2.497,7.861-4.888
		c0.041-0.047,0.074-0.09,0.103-0.131c-1.594-0.089-4.237-0.251-5.099-0.251C267.677,277.83,268.064,277.593,268.728,277.197z"/>
      <path style="fill:#F3F5D9;" d="M265.147,273.432c1.685-0.431,3.672-1.193,4.888-1.506c0.054-0.014,0.327-0.13,0.65-0.277
		c-0.089-0.062-0.191-0.13-0.319-0.21c-0.75-0.375-1.488-0.779-2.254-1.12c-3.049-1.361-6.219-2.211-9.588-2.014
		c-1.289,0.075-3.047,0.253-3.248,1.643s0.949,1.471,2.024,1.46c2.745-0.027,5.253,0.807,7.699,1.927
		C265.048,273.369,265.097,273.405,265.147,273.432z"/>
      <path style="fill:#F3F5D9;" d="M292.294,270.458c-4.162-0.968-8.33-0.699-12.506-0.115c-2.862,0.4-5.647,1.17-8.476,1.73
		c-1.816,0.86-3.792,1.242-5.679,1.893c-0.504,0.901-0.906,1.814-0.317,2.838c1.748-0.473,3.286-0.762,5.372-0.235
		c-0.6,0.381-0.942,0.88-0.976,1.4c0.968,0.059,1.91,0.058,2.862,0.1c2.88-0.012,5.748-0.253,8.591-0.676
		c1.581-0.235,3.065-0.552,4.43-0.924c-0.862-0.263-1.7-0.728-2.035-1.327c-0.232,0.152-0.49,0.237-0.758,0.237
		c-0.085,0-0.153-0.069-0.153-0.153s0.069-0.153,0.153-0.153c0.445,0,0.852-0.287,1.117-0.788c0.04-0.075,0.132-0.104,0.207-0.064
		c0.075,0.04,0.104,0.132,0.064,0.207c-0.108,0.204-0.241,0.377-0.39,0.52c0.326,0.656,1.401,1.155,2.374,1.358
		c4.634-1.349,7.761-3.319,8.325-4.781C293.884,270.948,293.124,270.651,292.294,270.458z M286.966,271.917
		c-0.114-0.078-0.251-0.124-0.4-0.124c-0.392,0-0.709,0.318-0.709,0.709c0,0.123,0.034,0.238,0.09,0.339
		c-0.499-0.033-0.895-0.445-0.895-0.952c0-0.529,0.429-0.959,0.959-0.959s0.959,0.429,0.959,0.959
		C286.969,271.899,286.966,271.908,286.966,271.917z"/>
   </g>
</svg>
