<svg version="1.1" id="Layer_1"
   xmlns="http://www.w3.org/2000/svg"
   xmlns:xlink="http://www.w3.org/1999/xlink" x="0px" y="0px" viewBox="0 0 50 50" style="enable-background:new 0 0 50 50;" xml:space="preserve">
   <path style="fill:#00D95F;" d="M25,0.5C11.5,0.5,0.5,11.5,0.5,25s11,24.5,24.5,24.5s24.5-11,24.5-24.5S38.5,0.5,25,0.5z M35.7,36.1
	c-0.3,0.5-0.9,0.8-1.4,0.8c-0.3,0-0.6-0.1-0.8-0.2c-4.4-2.6-9.5-3-13-2.9c-3.9,0.1-6.7,0.9-6.7,0.9c-0.9,0.2-1.8-0.3-2.1-1.2
	c-0.2-0.9,0.3-1.8,1.2-2.1c0.1,0,3.2-0.9,7.4-1c2.5-0.1,4.9,0.1,7.2,0.5c2.8,0.5,5.4,1.5,7.7,2.8C35.9,34.2,36.1,35.3,35.7,36.1z
	 M38.8,29.6c-0.4,0.6-1,1-1.7,1c-0.3,0-0.7-0.1-1-0.3c-5.2-3-11.2-3.5-15.4-3.4c-4.6,0.1-7.9,1-8,1.1c-1.1,0.3-2.1-0.3-2.4-1.4
	c-0.3-1.1,0.3-2.1,1.4-2.4c0.2,0,3.8-1,8.8-1.2c3-0.1,5.8,0.1,8.5,0.6c3.4,0.6,6.4,1.8,9.1,3.3C39,27.4,39.3,28.6,38.8,29.6z
	 M40.7,23.7c-0.4,0-0.8-0.1-1.2-0.3c-12.4-7.2-28.5-2.9-28.6-2.9c-1.3,0.4-2.6-0.4-3-1.7c-0.4-1.3,0.4-2.6,1.7-3
	c0.2-0.1,4.6-1.3,10.8-1.5c3.6-0.1,7.1,0.1,10.4,0.8c4.1,0.8,7.9,2.2,11.2,4.1c1.2,0.7,1.6,2.2,0.9,3.3
	C42.3,23.3,41.5,23.7,40.7,23.7z"/>
</svg>
